<?xml version="1.0" standalone="no"?>
<!DOCTYPE svg PUBLIC "-//W3C//DTD SVG 20010904//EN"
 "http://www.w3.org/TR/2001/REC-SVG-20010904/DTD/svg10.dtd">
<svg version="1.0" xmlns="http://www.w3.org/2000/svg"
 width="270.000000pt" height="310.000000pt" viewBox="0 0 270.000000 310.000000"
 preserveAspectRatio="xMidYMid meet">

<g transform="translate(0.000000,310.000000) scale(0.100000,-0.100000)"
fill="#000000" stroke="none">
<path d="M1376 2864 c-35 -24 -41 -25 -81 -15 -63 16 -96 14 -133 -9 -62 -38
-79 -133 -31 -176 l20 -18 -20 -8 c-13 -5 -38 0 -67 12 -65 28 -90 26 -130
-14 -32 -32 -34 -37 -34 -106 0 -88 -16 -148 -44 -162 -51 -26 -56 -42 -56
-210 0 -87 -2 -158 -5 -158 -3 0 -14 5 -24 11 -27 18 -67 3 -115 -41 -24 -22
-46 -37 -49 -34 -3 3 -23 10 -46 15 -31 7 -54 4 -105 -11 -36 -11 -68 -25 -71
-31 -4 -5 -21 -7 -41 -3 -50 9 -82 -3 -104 -39 -40 -65 -16 -154 51 -188 38
-19 39 -21 39 -70 0 -28 5 -59 10 -69 8 -15 4 -32 -22 -76 -24 -43 -32 -70
-32 -106 0 -81 60 -135 122 -112 26 10 33 6 91 -47 l62 -58 -61 -91 c-34 -51
-60 -94 -58 -96 3 -2 47 6 99 17 78 17 113 20 204 15 61 -4 126 -9 147 -12 45
-7 78 21 78 66 0 30 1 30 54 30 30 0 61 3 70 6 14 5 16 -6 16 -88 0 -67 -4
-100 -15 -114 -16 -21 -21 -119 -5 -129 5 -3 7 -11 5 -18 -21 -65 16 -372 51
-425 8 -12 29 -29 47 -37 40 -18 199 -55 237 -55 54 0 159 59 175 98 11 27 44
252 45 303 0 26 7 60 15 75 22 43 18 86 -11 129 -27 40 -30 61 -26 185 l2 75
54 -3 c52 -4 54 -5 60 -36 4 -19 15 -41 26 -51 19 -17 27 -17 98 -7 112 17
210 15 313 -8 51 -12 93 -19 95 -17 2 2 -21 41 -52 88 -31 46 -58 89 -61 95
-2 6 28 39 67 74 53 47 74 60 83 51 6 -6 26 -11 44 -11 26 0 45 10 83 46 60
56 70 90 40 139 -22 36 -23 61 -5 180 6 36 3 43 -27 73 -55 56 -128 112 -154
118 -13 3 -35 3 -49 0 -23 -6 -25 -4 -25 28 0 44 -53 122 -100 147 -37 20
-124 25 -150 9 -10 -6 -20 -4 -32 7 -16 14 -18 35 -18 162 0 161 -6 184 -57
216 -41 26 -53 60 -53 152 0 72 -1 76 -37 115 -90 97 -99 105 -153 122 -48 15
-58 23 -73 57 -33 70 -104 88 -171 43z m121 -26 c11 -13 25 -37 32 -54 11 -27
21 -34 73 -49 61 -17 108 -51 108 -79 0 -8 9 -18 20 -21 37 -12 51 -48 49
-122 -1 -38 3 -79 10 -90 6 -12 11 -31 11 -42 0 -16 6 -21 24 -21 15 0 33 -11
45 -26 19 -24 21 -40 21 -178 l0 -152 29 -28 c23 -22 33 -26 47 -18 68 34 146
14 194 -51 31 -43 41 -102 19 -124 -8 -8 -5 -14 11 -23 17 -9 25 -9 39 4 30
27 68 19 115 -24 24 -22 48 -40 54 -40 7 0 24 -18 38 -40 25 -38 26 -41 10
-65 -24 -36 -22 -135 4 -168 30 -37 25 -62 -21 -108 l-41 -41 -76 6 c-129 10
-247 27 -250 35 -12 35 -36 46 -138 66 l-108 22 48 28 47 28 20 -22 c11 -12
25 -19 30 -15 5 3 25 -8 45 -25 l35 -31 43 25 c23 14 47 25 52 25 5 0 24 -21
43 -45 36 -49 49 -53 85 -30 21 14 24 13 54 -21 30 -34 32 -35 61 -20 30 16
71 61 71 78 0 6 -9 21 -20 35 -26 33 -28 147 -5 181 15 20 14 24 -6 52 -13 16
-28 30 -35 30 -6 0 -32 21 -57 46 l-46 45 -39 -22 -39 -23 -37 23 c-36 23 -37
24 -17 38 49 34 -1 141 -78 164 -35 10 -59 5 -123 -29 -4 -2 -17 9 -30 24 -35
41 -81 57 -127 44 -60 -16 -75 -40 -81 -129 l-5 -76 -20 23 c-11 12 -28 22
-38 22 -11 0 -35 14 -54 30 -37 33 -64 38 -83 15 -13 -15 -97 -75 -106 -75 -2
0 -4 6 -4 13 0 8 -9 22 -20 32 -23 21 -26 62 -5 89 8 11 15 23 15 27 0 10 -49
59 -58 59 -5 0 -29 -13 -53 -29 -32 -20 -51 -41 -62 -69 -19 -49 -56 -87 -83
-87 -10 0 -35 10 -54 23 -46 29 -55 28 -93 -12 -43 -45 -102 -87 -110 -79 -4
3 -7 25 -7 49 0 38 -5 48 -57 98 -32 31 -65 56 -75 56 -9 0 -38 -24 -64 -54
l-47 -53 -35 23 c-19 13 -45 24 -57 24 -33 0 -104 -27 -148 -56 l-38 -25 -17
21 c-16 19 -19 20 -39 5 -25 -18 -31 -71 -13 -106 12 -21 83 -59 112 -59 22 0
23 -13 4 -29 -34 -29 -23 -120 16 -134 9 -3 2 -16 -19 -38 -35 -37 -63 -95
-63 -131 0 -64 68 -92 80 -33 17 82 46 96 125 59 55 -25 61 -25 119 -14 75 15
147 52 190 100 l33 36 47 -42 c53 -46 74 -48 106 -6 l20 25 23 -21 c31 -29 48
-28 82 8 27 28 30 29 46 14 10 -9 25 -14 33 -11 8 3 27 -5 43 -19 l28 -24 -95
0 c-106 0 -312 -22 -420 -45 -39 -8 -74 -15 -77 -15 -3 0 -18 -14 -34 -31 -26
-28 -36 -31 -141 -44 -62 -8 -128 -17 -146 -21 -89 -18 -107 112 -29 210 23
29 23 29 5 65 -18 34 -19 62 -3 103 5 13 -3 22 -33 37 -22 11 -50 32 -61 47
-25 32 -28 90 -5 122 16 24 62 30 81 11 9 -9 19 -6 41 9 16 12 56 28 89 38 57
16 61 15 103 -3 l44 -19 46 48 c53 55 75 59 118 23 17 -14 33 -25 36 -25 3 0
6 83 6 185 0 172 1 186 20 205 11 11 29 20 40 20 15 0 20 7 20 28 1 15 6 37
13 50 9 15 12 48 10 92 -4 64 -2 72 21 95 31 31 59 31 113 1 l41 -24 53 24 52
24 -42 39 c-22 21 -41 45 -41 54 0 55 60 104 113 92 107 -24 106 -24 144 6 43
35 82 37 110 7z m-175 -870 c-7 -7 -12 -36 -12 -66 0 -45 3 -55 20 -59 11 -3
20 -9 20 -13 0 -4 -9 -10 -20 -13 -19 -5 -20 -14 -20 -120 0 -88 3 -117 15
-127 8 -6 19 -8 26 -4 27 16 0 -22 -35 -50 l-38 -31 -23 29 c-21 26 -25 28
-41 15 -16 -13 -17 -12 -9 6 6 11 11 75 13 143 3 103 1 123 -12 128 -19 7 -21
34 -3 34 6 0 21 24 32 52 14 36 31 60 54 75 34 23 55 23 33 1z m552 -19 c16
-12 26 -30 26 -45 0 -22 -4 -25 -27 -22 -24 3 -28 7 -28 36 0 17 -4 31 -10 29
-6 -2 -11 -78 -13 -197 -2 -168 0 -195 14 -211 9 -10 21 -16 25 -13 5 3 9 1 9
-4 0 -4 -19 -19 -42 -32 l-42 -23 -27 32 c-17 21 -32 30 -40 25 -7 -4 -5 3 4
17 14 20 17 52 17 205 l0 183 26 20 c15 12 39 21 54 21 15 0 39 -9 54 -21z
m-528 -11 c-9 -12 -17 -36 -17 -53 -1 -19 -3 -23 -6 -12 -8 32 7 87 23 87 13
0 13 -3 0 -22z m-562 -32 c49 -46 49 -87 -1 -145 -29 -34 -33 -45 -22 -52 8
-5 19 -9 26 -9 21 0 53 -52 53 -87 0 -52 -28 -101 -79 -139 -25 -18 -49 -34
-52 -34 -4 0 2 17 13 38 15 30 19 53 16 119 -3 88 -13 109 -48 98 -18 -6 -21
-12 -16 -36 3 -16 1 -29 -4 -29 -11 0 -12 22 -10 140 1 59 -1 72 -11 63 -7 -7
-13 -40 -15 -73 -4 -114 -70 -206 -154 -217 -68 -9 -104 55 -58 104 25 27 73
31 82 7 11 -30 6 -46 -25 -75 l-31 -29 27 0 c63 0 111 95 83 168 -14 36 -15
37 -63 35 -28 -1 -77 -5 -110 -8 -65 -8 -81 0 -85 40 -4 38 1 51 10 28 8 -20
13 -21 36 -13 15 6 39 19 55 30 34 25 103 50 135 50 13 0 38 -13 57 -29 l33
-30 53 60 c29 32 56 59 61 59 5 0 25 -15 44 -34z m1310 3 c26 -20 35 -62 16
-74 -5 -3 -19 -1 -31 5 -17 10 -20 18 -15 42 4 21 2 28 -7 25 -9 -3 -13 -54
-15 -196 l-2 -191 24 -25 25 -25 -39 -20 -39 -20 -28 34 c-20 27 -30 32 -40
24 -8 -6 -13 -7 -13 0 0 5 7 15 15 22 12 10 15 45 15 194 0 99 4 186 8 192 25
37 87 44 126 13z m-168 -35 c-3 -9 -6 -18 -6 -20 0 -2 -9 -4 -20 -4 -19 0 -19
1 -2 19 21 24 36 26 28 5z m-89 -231 c-1 -43 -3 -8 -3 77 0 85 2 120 3 78 2
-43 2 -113 0 -155z m-252 187 c16 -16 38 -30 49 -30 16 0 17 -3 8 -12 -8 -8
-12 -47 -12 -110 0 -82 3 -99 18 -107 15 -9 13 -14 -20 -47 l-36 -37 -16 31
c-23 45 -31 46 -70 11 -21 -18 -42 -29 -51 -25 -28 10 -52 67 -59 136 -9 90 7
129 67 164 25 15 51 33 57 41 18 22 33 18 65 -15z m-505 -5 c19 -14 40 -23 47
-21 15 6 18 -10 3 -19 -12 -8 -13 -185 -1 -204 5 -7 14 -10 21 -6 16 10 -1
-20 -35 -60 -25 -30 -26 -30 -41 -10 -8 11 -19 27 -24 35 -7 12 -17 7 -52 -28
l-44 -42 -29 30 c-27 28 -30 39 -34 111 -4 98 7 127 65 168 24 18 49 41 54 52
14 25 29 24 70 -6z m1056 -13 c-12 -13 -18 -13 -28 -4 -9 9 -9 12 4 12 9 0 19
8 23 18 6 13 9 14 12 4 3 -8 -2 -21 -11 -30z m-75 -132 c0 -79 -3 -145 -6
-148 -3 -3 -5 64 -5 148 0 84 2 151 5 148 3 -3 6 -70 6 -148z m-1221 118 c-1
-26 -45 -86 -56 -76 -3 4 5 21 20 38 14 17 26 38 26 46 0 8 2 14 5 14 3 0 5
-10 5 -22z m540 2 c0 -5 -9 -10 -20 -10 -18 0 -20 -8 -23 -107 l-3 -108 -2
112 c-2 99 0 112 16 116 29 8 32 7 32 -3z m-217 -22 c-4 -7 -11 -51 -14 -98
l-6 -85 -1 86 c-1 55 2 89 10 97 16 16 21 15 11 0z m501 -15 c-4 -10 -11 -52
-14 -93 l-7 -75 -1 81 c-1 51 2 84 10 92 17 17 21 15 12 -5z m-1199 -28 c-16
-8 -39 -14 -50 -14 -11 0 -2 6 20 14 52 17 68 17 30 0z m1854 -40 c23 -25 46
-43 51 -40 6 4 10 2 10 -4 0 -5 -4 -13 -10 -16 -11 -7 -14 -155 -4 -192 3 -12
13 -23 21 -25 10 -2 4 -13 -21 -37 l-35 -34 -20 34 c-12 19 -23 39 -25 44 -3
10 -12 6 -66 -27 -16 -11 -22 -9 -35 7 -34 44 -47 81 -51 149 -6 88 6 114 68
143 25 12 49 27 53 32 11 18 21 13 64 -34z m-1617 -92 c-5 -137 -9 -151 -10
-35 -1 61 1 112 6 112 4 0 6 -35 4 -77z m-52 62 c0 -18 -44 -86 -66 -104 -39
-30 -42 -17 -6 20 17 17 36 44 42 60 11 25 30 40 30 24z m-135 -83 c-15 -16
-16 -15 -4 12 7 15 15 23 17 16 3 -7 -3 -19 -13 -28z m1877 -34 c-5 -114 -9
-122 -11 -20 0 50 3 92 7 92 4 0 6 -33 4 -72z m-1537 -3 c-27 -73 -115 -135
-210 -149 -35 -6 -33 -4 16 12 104 35 176 100 195 177 4 16 9 24 12 17 2 -8
-3 -33 -13 -57z m316 -12 c-14 -26 -60 -67 -67 -60 -9 9 46 77 63 77 10 0 11
-5 4 -17z m519 10 c0 -13 -55 -73 -66 -73 -20 0 -18 8 10 45 14 17 32 32 40
32 9 0 16 -2 16 -4z m-332 -38 c-38 -35 -63 -45 -56 -22 5 14 66 57 82 57 6 0
-6 -16 -26 -35z m-746 -27 c48 -52 52 -52 60 -3 3 14 6 10 9 -13 5 -30 3 -33
-30 -42 -60 -17 -109 -12 -156 16 -41 23 -46 24 -72 10 -26 -13 -43 -36 -56
-76 -4 -11 -6 -11 -6 3 -3 61 102 156 173 157 23 0 40 -12 78 -52z m937 45 c0
-13 -59 -56 -66 -49 -9 8 37 56 54 56 7 0 13 -3 12 -7z m-509 -11 c0 -14 -56
-63 -63 -55 -4 3 5 19 20 35 27 28 43 35 43 20z m404 -37 c20 -19 40 -35 45
-35 5 0 23 11 39 25 l29 24 23 -24 c30 -32 47 -31 83 3 27 25 29 26 41 10 7
-10 21 -18 31 -18 9 0 31 -12 49 -27 l31 -26 -65 7 c-92 11 -380 24 -410 20
-22 -3 -20 1 20 36 25 22 46 40 47 40 1 0 18 -16 37 -35z m456 20 c0 -13 -83
-56 -92 -47 -6 6 7 17 34 31 43 21 58 25 58 16z m219 -48 c-24 -18 -83 -46
-88 -42 -8 9 39 43 64 47 20 4 32 1 24 -5z m-1686 -25 c-12 -9 -29 -33 -37
-52 -9 -20 -15 -27 -16 -17 0 24 26 74 42 80 27 11 32 6 11 -11z m1252 -23
c131 -11 302 -41 334 -59 12 -6 21 -19 21 -29 0 -16 10 -20 63 -25 34 -4 84
-9 111 -13 l50 -5 -67 -62 -68 -61 56 -82 c30 -46 52 -83 48 -83 -5 1 -37 7
-73 15 -78 17 -210 19 -297 4 -75 -13 -88 -6 -98 50 l-6 38 -97 6 c-119 8
-541 7 -637 -2 l-70 -6 -3 -37 c-5 -55 -21 -64 -96 -50 -86 16 -228 15 -301
-3 -33 -8 -63 -14 -67 -15 -4 0 17 37 47 83 l54 82 -67 61 -67 61 45 6 c25 3
75 9 113 13 39 4 67 11 67 18 0 24 19 38 71 51 205 54 598 73 934 44z m600 1
c7 -11 -54 -45 -63 -35 -4 3 4 15 18 25 28 22 36 24 45 10z m135 -18 c0 -5
-14 -21 -30 -37 -24 -23 -33 -26 -42 -17 -10 10 -7 18 12 37 24 23 60 33 60
17z m-1125 -311 c3 -6 2 -11 -4 -11 -6 0 -8 -7 -5 -15 5 -11 2 -13 -10 -9 -11
4 -16 0 -16 -14 0 -18 9 -21 65 -27 36 -4 65 -10 65 -14 0 -4 -48 -1 -107 6
-60 7 -115 12 -123 10 -8 -2 30 -9 85 -15 115 -15 158 -22 153 -28 -2 -2 -58
3 -123 11 -65 8 -120 13 -122 11 -5 -4 28 -10 157 -27 47 -6 87 -13 90 -16 3
-3 -20 -3 -50 0 -30 4 -77 9 -105 11 l-50 5 55 -11 c39 -9 48 -13 31 -16 -19
-3 -21 -6 -10 -13 17 -11 -17 -12 -73 -3 -32 6 -38 11 -39 33 l-2 26 -4 -28
c-5 -30 14 -55 39 -51 9 1 19 -5 22 -13 4 -9 2 -12 -7 -7 -6 4 -9 4 -5 -1 4
-4 3 -17 -3 -28 -9 -15 -8 -18 2 -12 9 6 11 3 6 -8 -10 -27 1 -20 17 11 9 18
11 33 5 44 -7 12 -5 16 7 14 16 -3 34 -24 33 -41 0 -5 -6 1 -13 15 l-14 25 1
-27 c1 -14 4 -26 7 -26 18 1 19 -6 4 -33 -10 -21 -11 -29 -3 -23 8 5 11 2 6
-8 -3 -9 -1 -20 5 -26 6 -6 5 -20 -6 -40 -8 -16 -12 -32 -9 -36 4 -3 2 -6 -4
-6 -5 0 -10 -7 -10 -15 0 -8 5 -11 10 -8 6 4 8 -1 4 -11 -4 -10 -3 -15 3 -11
6 3 10 0 10 -7 0 -9 3 -9 10 2 9 13 10 13 10 0 0 -13 1 -13 10 0 10 16 32 20
41 8 3 -5 11 3 17 16 10 22 9 24 -9 21 -15 -3 -19 0 -15 10 3 8 0 14 -7 12 -7
-1 -12 4 -12 12 0 8 8 15 18 17 9 1 17 -2 17 -7 0 -5 5 -9 12 -9 6 0 8 3 5 6
-3 4 -2 15 4 26 11 20 11 20 25 -1 9 -12 12 -26 8 -32 -5 -8 -9 -8 -14 1 -5 8
-9 7 -13 -5 -5 -11 -3 -14 5 -9 8 5 9 2 4 -11 -6 -16 -4 -16 11 -4 14 12 16
12 8 0 -4 -8 -9 -31 -9 -50 -1 -33 -4 -36 -28 -35 -46 2 -49 4 -42 17 6 9 4 9
-8 -1 -9 -7 -19 -9 -22 -4 -3 5 -20 8 -36 7 -21 -2 -30 1 -27 10 3 6 -1 12 -9
12 -7 0 -11 -3 -9 -6 2 -4 -14 -5 -36 -3 -45 5 -45 4 -29 -93 6 -33 15 -87 21
-120 13 -82 31 -96 162 -125 59 -13 110 -20 113 -17 12 12 8 70 -13 192 -8 45
-7 239 0 270 3 11 6 23 6 28 1 4 8 7 17 7 8 0 12 -4 9 -10 -3 -5 1 -10 9 -10
10 0 16 -9 17 -22 0 -13 4 -32 9 -43 6 -15 8 -10 7 20 -2 39 -1 40 28 37 16
-2 34 -9 38 -15 5 -7 7 0 4 18 -3 20 2 39 15 57 10 16 15 28 10 28 -9 0 -9 56
-3 243 1 16 5 26 11 22 6 -4 9 -54 8 -126 -2 -112 -1 -120 19 -134 30 -21 38
-73 19 -120 -9 -20 -16 -52 -16 -69 1 -80 -34 -292 -53 -319 -24 -35 -106 -77
-149 -77 -45 0 -213 44 -242 64 -30 19 -32 25 -60 189 -16 96 -20 151 -16 193
4 32 3 67 -1 76 -15 29 -10 97 9 116 14 14 16 32 14 112 l-4 96 80 3 c49 1 83
-2 87 -8z m85 2 c0 -2 -8 -12 -17 -23 -24 -27 -43 -25 -43 5 0 22 4 25 30 23
17 -1 30 -3 30 -5z m98 -50 c-2 -19 1 -33 7 -33 5 0 3 -5 -5 -10 -11 -7 -11
-10 -2 -10 7 0 10 -4 7 -10 -3 -5 -12 -10 -18 -10 -8 0 -13 22 -15 67 -3 60
-1 65 13 53 11 -9 15 -25 13 -47z m84 -48 c0 -58 1 -117 2 -132 1 -14 -4 -28
-11 -30 -9 -3 -13 31 -15 127 -2 73 -1 134 1 136 16 15 21 -9 23 -101z m-77
-47 c-3 -13 -7 -37 -8 -55 -2 -17 -9 -38 -15 -46 -7 -8 -10 -16 -7 -19 3 -2
-1 -5 -8 -5 -15 0 -11 43 6 65 5 6 7 25 4 41 -5 23 -2 31 11 34 9 3 18 5 20 6
1 0 0 -9 -3 -21z m45 -88 c0 -42 -2 -48 -17 -43 -11 4 -12 8 -5 11 7 2 12 21
12 43 0 21 2 39 5 39 3 0 5 -22 5 -50z m-215 31 c3 -6 13 -8 23 -6 11 2 18 -3
19 -14 1 -10 -5 -18 -13 -18 -8 0 -13 6 -10 13 3 8 -2 10 -16 6 -13 -3 -19 -1
-15 5 3 5 0 10 -7 10 -8 0 -12 -6 -9 -14 3 -7 12 -13 19 -13 12 0 12 -4 3 -21
-9 -17 -8 -20 2 -14 9 6 11 3 6 -9 -4 -10 -3 -15 3 -11 6 3 10 2 10 -3 0 -5 9
-12 21 -15 16 -4 19 -2 14 11 -5 13 -3 14 6 5 9 -9 7 -19 -9 -45 -12 -18 -22
-26 -22 -18 0 13 -1 13 -10 0 -8 -13 -10 -13 -10 0 0 10 -5 7 -15 -8 -14 -19
-14 -24 1 -47 9 -14 14 -28 10 -32 -3 -3 -6 0 -6 7 0 9 -5 7 -16 -6 -14 -17
-15 -17 -10 -1 3 11 2 16 -4 12 -7 -4 -9 6 -5 27 4 22 2 28 -4 19 -5 -8 -7
-28 -5 -45 2 -23 1 -27 -6 -15 -11 18 -7 48 10 79 7 13 8 26 3 33 -5 7 -8 26
-6 42 2 17 4 45 5 63 1 23 6 32 19 32 10 0 20 -4 24 -9z m75 -12 c0 -6 -5 -20
-11 -31 -9 -16 -8 -19 2 -13 9 6 11 3 6 -8 -3 -9 -3 -16 1 -16 22 4 32 -2 25
-13 -4 -7 -8 -17 -9 -23 0 -5 -2 -17 -3 -25 -1 -12 -4 -12 -12 3 -5 9 -7 22
-4 28 11 17 -15 41 -31 28 -9 -8 -15 -5 -24 11 -6 12 -9 24 -6 28 3 3 6 -1 6
-9 0 -12 2 -11 11 1 8 12 9 9 4 -10 -4 -19 -1 -17 14 10 10 19 17 38 14 42 -2
5 1 8 6 8 6 0 11 -5 11 -11z m15 -20 c-5 -14 -4 -19 4 -15 7 5 8 1 4 -10 -5
-14 -7 -14 -15 -1 -4 8 -5 22 -2 31 9 24 16 19 9 -5z m38 -64 c-3 -9 -8 -14
-10 -11 -3 3 -2 9 2 15 9 16 15 13 8 -4z"/>
<path d="M1428 2785 c-6 -14 -16 -24 -22 -22 -14 6 -46 -11 -46 -24 0 -5 11
-7 24 -3 32 8 43 -12 20 -37 -20 -23 -39 -20 -39 6 0 10 -9 23 -20 29 -11 6
-23 15 -26 19 -4 5 -18 7 -31 6 -14 -2 -33 2 -41 10 -10 8 -24 10 -34 6 -15
-6 -14 -9 10 -17 15 -5 27 -15 27 -22 0 -7 9 -32 21 -56 l21 -43 -29 -24 c-15
-13 -75 -47 -133 -75 -58 -28 -108 -53 -113 -55 -16 -9 -18 29 -2 47 19 21 15
35 -15 43 -13 3 -20 0 -20 -9 0 -8 7 -14 15 -14 14 0 14 -3 -1 -25 -18 -28
-12 -42 22 -55 26 -10 33 -40 10 -40 -8 0 -17 -7 -20 -16 -3 -8 -11 -12 -17
-8 -8 4 -9 3 -5 -4 4 -8 0 -12 -11 -12 -14 0 -15 -2 -4 -9 8 -5 24 -3 40 5 14
8 36 14 47 14 12 0 28 8 35 17 9 11 10 14 2 9 -9 -5 -11 -2 -6 9 3 9 9 13 12
8 3 -5 20 -9 36 -8 36 2 65 -11 64 -28 0 -9 -2 -9 -6 1 -2 6 -9 12 -14 12 -6
0 -7 -6 -3 -12 6 -10 5 -10 -8 -1 -8 7 -18 10 -21 6 -4 -3 2 -12 12 -20 14 -9
27 -10 45 -3 27 10 36 45 14 53 -7 3 -3 4 9 4 18 -1 21 -6 17 -24 -6 -22 -4
-23 42 -20 36 3 48 7 45 18 -19 65 -38 103 -64 125 l-31 26 32 29 c18 16 40
29 50 29 37 0 135 -29 149 -43 14 -14 12 -19 -21 -47 -21 -19 -40 -47 -46 -70
-6 -22 -15 -42 -20 -45 -22 -14 -7 -22 41 -23 48 -1 51 0 47 22 -3 17 0 22 14
21 9 -1 20 -4 23 -8 3 -4 2 -5 -2 -2 -3 3 -14 -9 -25 -25 -48 -80 -153 -92
-228 -27 l-25 22 20 -24 c54 -64 156 -66 227 -4 11 10 26 13 41 9 16 -4 29 0
37 9 10 12 9 15 -4 15 -37 0 -13 18 28 22 35 2 46 -1 49 -13 4 -13 27 -23 75
-30 4 0 12 -5 17 -9 6 -5 17 -5 25 0 12 8 12 10 -3 10 -11 0 -15 4 -11 12 4 6
3 8 -3 5 -12 -7 -43 28 -43 48 0 8 6 15 14 15 26 0 39 26 25 51 -9 17 -9 24 0
27 16 5 14 22 -3 22 -24 0 -38 -26 -21 -40 18 -15 20 -40 3 -40 -6 0 -41 14
-77 31 -36 17 -81 38 -100 47 -38 17 -87 59 -79 67 3 3 21 -1 41 -10 40 -17
96 -10 113 13 8 11 19 13 39 8 25 -6 27 -5 16 8 -8 9 -22 16 -33 16 -10 0 -29
7 -42 16 -17 10 -26 12 -31 4 -5 -8 -11 -8 -20 0 -16 13 -45 3 -45 -16 0 -23
-20 -16 -30 12 -6 14 -10 27 -10 30 0 9 37 3 48 -8 9 -9 12 -8 12 4 0 19 -24
40 -35 30 -4 -4 -5 2 -1 14 7 24 -1 54 -15 54 -5 0 -15 -11 -21 -25z m-113
-73 c1 -12 -2 -22 -5 -22 -14 0 -32 29 -25 40 11 17 28 6 30 -18z m239 -48 c9
-3 16 -11 16 -17 0 -6 -3 -7 -7 -4 -3 4 -12 2 -20 -5 -17 -14 -25 -6 -17 16 7
18 7 18 28 10z"/>
<path d="M1290 2230 c0 -49 0 -49 -26 -39 -55 20 -103 -46 -73 -100 13 -23 22
-26 77 -28 l62 -2 0 110 c0 102 -1 109 -20 109 -17 0 -20 -7 -20 -50z m-6 -92
c13 -22 -14 -54 -38 -45 -16 6 -22 48 -9 61 11 11 35 3 47 -16z"/>
<path d="M1730 2170 c0 -103 1 -110 20 -110 19 0 20 7 20 110 0 103 -1 110
-20 110 -19 0 -20 -7 -20 -110z"/>
<path d="M1800 2170 c0 -103 1 -110 20 -110 19 0 20 7 20 110 0 103 -1 110
-20 110 -19 0 -20 -7 -20 -110z"/>
<path d="M870 2165 l0 -105 25 0 c25 0 25 1 25 83 0 46 3 87 6 90 10 10 44
-12 44 -29 0 -9 -9 -18 -20 -21 -27 -7 -26 -44 3 -88 16 -26 29 -35 50 -35
l29 0 -31 42 -31 43 21 16 c28 21 30 76 4 95 -10 8 -43 14 -72 14 l-53 0 0
-105z"/>
<path d="M1400 2165 l0 -105 60 0 c47 0 64 4 80 20 25 25 25 55 0 80 -11 11
-15 22 -10 25 16 10 11 51 -8 68 -12 11 -36 17 -70 17 l-52 0 0 -105z m90 45
c0 -11 -7 -20 -15 -20 -25 0 -18 -38 8 -42 14 -2 22 -10 22 -23 0 -15 -8 -21
-31 -23 l-31 -3 -2 65 c-2 64 -1 66 24 66 18 0 25 -5 25 -20z"/>
<path d="M1056 2179 c-36 -28 -36 -80 0 -108 31 -24 40 -25 73 -8 31 16 24 32
-14 32 -45 0 -36 20 10 21 36 1 40 4 37 25 -3 27 -36 59 -62 59 -9 0 -29 -9
-44 -21z m64 -30 c0 -5 -12 -9 -26 -9 -22 0 -24 2 -14 14 12 15 40 11 40 -5z"/>
<path d="M1570 2136 c0 -45 4 -58 22 -70 12 -9 32 -16 43 -16 11 0 31 7 43 16
18 12 22 25 22 70 0 47 -3 54 -19 54 -17 0 -20 -8 -23 -47 -3 -40 -6 -48 -23
-48 -17 0 -20 8 -23 48 -3 39 -6 47 -23 47 -16 0 -19 -7 -19 -54z"/>
<path d="M677 1843 c-9 -8 -9 -86 -1 -107 9 -22 51 -20 64 3 16 31 12 56 -15
85 -24 26 -36 31 -48 19z m20 -75 c-2 -13 -4 -5 -4 17 -1 22 1 32 4 23 2 -10
2 -28 0 -40z"/>
<path d="M1480 1694 c0 -97 10 -134 35 -134 23 0 35 34 35 102 0 68 -26 128
-55 128 -12 0 -15 -17 -15 -96z m30 43 c0 -18 -2 -19 -10 -7 -13 20 -13 43 0
35 6 -3 10 -16 10 -28z m-5 -47 c3 -5 1 -10 -4 -10 -6 0 -11 5 -11 10 0 6 2
10 4 10 3 0 8 -4 11 -10z m5 -60 c0 -11 -4 -20 -8 -20 -4 0 -8 9 -9 20 -1 11
2 20 8 20 5 0 9 -9 9 -20z"/>
<path d="M977 1763 c-4 -3 -7 -46 -7 -94 0 -72 3 -91 20 -110 20 -24 20 -24
35 -5 21 28 21 158 -1 191 -16 25 -34 31 -47 18z m20 -146 c-2 -23 -3 -1 -3
48 0 50 1 68 3 42 2 -26 2 -67 0 -90z"/>
<path d="M2220 1578 c1 -108 13 -147 45 -135 24 10 21 162 -5 205 -33 53 -40
40 -40 -70z m21 -5 c-3 -107 -11 -106 -11 2 0 49 3 85 6 82 4 -4 6 -41 5 -84z"/>
<path d="M1050 1389 c-102 -10 -252 -33 -312 -50 -30 -8 -38 -15 -38 -33 0
-26 6 -24 -153 -42 l-59 -6 33 -34 c18 -19 37 -34 43 -34 5 0 -3 14 -19 30
-16 17 -25 30 -21 30 7 0 60 -59 62 -69 0 -3 4 -14 8 -23 5 -11 -7 -38 -38
-84 -25 -37 -44 -69 -43 -70 1 -1 45 5 98 13 86 14 107 14 200 1 69 -10 108
-12 117 -5 6 5 12 27 12 47 l0 38 73 7 c137 13 919 -3 935 -19 2 -3 -13 -8
-34 -11 -22 -3 -58 -12 -81 -19 -30 -9 -44 -10 -47 -2 -2 6 -5 1 -5 -10 -2
-38 17 -42 119 -27 92 14 207 9 289 -14 21 -5 18 2 -27 70 l-52 75 62 55 62
55 -65 6 c-129 13 -137 16 -143 41 -7 28 -30 36 -171 60 -202 34 -573 45 -805
24z m213 -6 c-7 -2 -19 -2 -25 0 -7 3 -2 5 12 5 14 0 19 -2 13 -5z m185 0
c-32 -2 -84 -2 -115 0 -32 2 -6 3 57 3 63 0 89 -1 58 -3z m-315 -10 c-13 -2
-35 -2 -50 0 -16 2 -5 4 22 4 28 0 40 -2 28 -4z m510 0 c-13 -2 -33 -2 -45 0
-13 2 -3 4 22 4 25 0 35 -2 23 -4z m-630 -10 c-7 -2 -21 -2 -30 0 -10 3 -4 5
12 5 17 0 24 -2 18 -5z m740 0 c-7 -2 -21 -2 -30 0 -10 3 -4 5 12 5 17 0 24
-2 18 -5z m-830 -10 c-7 -2 -19 -2 -25 0 -7 3 -2 5 12 5 14 0 19 -2 13 -5z
m900 0 c-7 -2 -19 -2 -25 0 -7 3 -2 5 12 5 14 0 19 -2 13 -5z m-960 -10 c-7
-2 -19 -2 -25 0 -7 3 -2 5 12 5 14 0 19 -2 13 -5z m584 -3 c12 0 13 -3 4 -14
-8 -10 -8 -20 4 -42 8 -16 15 -34 15 -41 0 -17 -29 -43 -48 -43 -12 0 -13 3
-4 12 19 19 14 76 -8 98 -22 22 -18 45 7 36 8 -3 22 -6 30 -6z m440 4 c-3 -3
-12 -4 -19 -1 -8 3 -5 6 6 6 11 1 17 -2 13 -5z m-1080 -10 c-3 -3 -12 -4 -19
-1 -8 3 -5 6 6 6 11 1 17 -2 13 -5z m565 -6 c-15 -15 -16 -82 -2 -108 9 -16 8
-18 -5 -14 -38 15 -47 82 -15 114 11 11 23 20 27 20 4 0 2 -5 -5 -12z m266 -7
c3 -10 0 -12 -13 -7 -16 6 -17 0 -13 -59 3 -55 2 -65 -12 -63 -19 4 -26 82
-10 122 11 29 39 33 48 7z m299 13 c-3 -3 -12 -4 -19 -1 -8 3 -5 6 6 6 11 1
17 -2 13 -5z m-827 -15 c0 -6 -6 -9 -14 -6 -15 6 -15 -6 -1 -96 4 -23 1 -28
-13 -25 -13 2 -18 16 -20 56 -2 29 -1 60 2 68 6 16 46 19 46 3z m598 -9 c4
-12 3 -13 -10 -2 -13 11 -16 6 -21 -40 -3 -31 0 -58 6 -66 9 -11 6 -13 -13
-10 -23 3 -25 7 -22 53 5 73 10 87 35 83 11 -2 23 -10 25 -18z m-986 -37 c-5
-76 -10 -83 -11 -15 0 34 2 62 7 62 4 0 6 -21 4 -47z m683 13 c11 -19 15 -41
11 -51 -6 -15 -10 -12 -26 18 -21 39 -26 67 -12 67 5 0 17 -15 27 -34z m-460
14 c3 -5 -1 -10 -11 -10 -14 0 -15 -7 -9 -47 4 -27 11 -53 16 -60 19 -22 -39
-26 -66 -3 -17 14 -20 66 -4 75 5 4 14 18 19 31 10 24 43 33 55 14z m245 -58
c0 -32 -28 -54 -52 -41 -24 13 -24 74 -1 88 24 13 53 -13 53 -47z m78 34 c-1
-6 2 -21 6 -34 10 -29 -15 -51 -50 -44 -27 5 -22 22 7 22 10 0 19 5 19 10 0 6
-9 10 -19 10 -31 0 -37 21 -12 41 23 19 53 16 49 -5z m278 12 c8 -12 12 -78 6
-91 -9 -19 -31 16 -26 43 4 16 1 31 -6 35 -9 6 -11 -3 -8 -34 3 -33 1 -41 -12
-39 -9 2 -16 16 -18 35 -2 23 3 35 20 47 27 19 34 20 44 4z m224 -54 c0 -39
-31 -64 -56 -43 -22 18 -17 65 8 83 29 20 48 4 48 -40z m-772 18 c4 -26 -15
-30 -21 -4 -3 11 -5 8 -6 -9 0 -15 6 -32 14 -39 20 -17 9 -33 -14 -20 -26 13
-33 61 -13 83 19 22 36 17 40 -11z m846 12 c23 -9 20 -27 -4 -21 -11 3 -20 2
-20 -3 0 -4 9 -10 20 -13 21 -5 28 -41 10 -52 -15 -9 -71 5 -64 16 3 5 14 7
25 4 13 -4 19 -2 19 9 0 10 -6 13 -15 10 -23 -9 -32 26 -10 42 22 16 19 16 39
8z m-1201 -11 c-13 -2 -33 -2 -45 0 -13 2 -3 4 22 4 25 0 35 -2 23 -4z m1480
0 c-13 -2 -33 -2 -45 0 -13 2 -3 4 22 4 25 0 35 -2 23 -4z m27 -56 c-30 -28
-57 -51 -60 -49 -7 5 93 100 105 101 6 0 -15 -23 -45 -52z m-143 -9 c-2 -13
-4 -5 -4 17 -1 22 1 32 4 23 2 -10 2 -28 0 -40z m-595 -20 c-8 -8 -17 -8 -34
0 -22 10 -21 11 12 11 26 1 31 -2 22 -11z m-788 -28 c-6 -6 -10 -3 -10 10 0
13 4 16 10 10 7 -7 7 -13 0 -20z m110 -15 c5 -22 4 -26 -4 -15 -5 8 -10 24
-10 34 0 26 6 18 14 -19z m384 -2 c-15 -2 -42 -2 -60 0 -18 2 -6 4 27 4 33 0
48 -2 33 -4z m570 0 c-21 -2 -57 -2 -80 0 -24 2 -7 4 37 4 44 0 63 -2 43 -4z
m-1084 -15 c-4 -7 -16 -25 -26 -40 -11 -16 -16 -32 -13 -38 3 -5 -1 -10 -11
-10 -15 0 -15 2 0 25 9 14 23 36 32 50 16 25 31 36 18 13z m309 5 c-13 -2 -33
-2 -45 0 -13 2 -3 4 22 4 25 0 35 -2 23 -4z m950 0 c-13 -2 -35 -2 -50 0 -16
2 -5 4 22 4 28 0 40 -2 28 -4z m-1065 -10 c-10 -2 -26 -2 -35 0 -10 3 -2 5 17
5 19 0 27 -2 18 -5z m1165 0 c-7 -2 -19 -2 -25 0 -7 3 -2 5 12 5 14 0 19 -2
13 -5z m-1033 -32 l0 -30 -42 14 c-24 7 -61 17 -83 21 l-40 8 45 6 c25 4 62 8
83 8 35 2 37 0 37 -27z m-202 -28 c-10 -2 -28 -2 -40 0 -13 2 -5 4 17 4 22 1
32 -1 23 -4z m1300 0 c-10 -2 -26 -2 -35 0 -10 3 -2 5 17 5 19 0 27 -2 18 -5z
m-1405 -10 c-7 -2 -21 -2 -30 0 -10 3 -4 5 12 5 17 0 24 -2 18 -5z m210 0 c-7
-2 -19 -2 -25 0 -7 3 -2 5 12 5 14 0 19 -2 13 -5z m1074 1 c-3 -3 -12 -4 -19
-1 -8 3 -5 6 6 6 11 1 17 -2 13 -5z m216 -1 c-7 -2 -19 -2 -25 0 -7 3 -2 5 12
5 14 0 19 -2 13 -5z m52 -3 c3 -5 -1 -10 -10 -10 -9 0 -13 5 -10 10 3 6 8 10
10 10 2 0 7 -4 10 -10z m-1282 -7 c-7 -2 -19 -2 -25 0 -7 3 -2 5 12 5 14 0 19
-2 13 -5z"/>
<path d="M880 1236 c0 -21 11 -46 20 -46 10 0 0 49 -11 56 -5 3 -9 -1 -9 -10z"/>
<path d="M1140 1256 c0 -14 5 -28 10 -31 6 -3 10 5 10 19 0 14 -4 28 -10 31
-6 3 -10 -5 -10 -19z"/>
<path d="M1230 1264 c0 -8 5 -12 10 -9 6 4 8 11 5 16 -9 14 -15 11 -15 -7z"/>
<path d="M1730 1240 c0 -18 4 -29 10 -25 6 3 10 15 10 25 0 10 -4 22 -10 25
-6 4 -10 -7 -10 -25z"/>
<path d="M1145 856 c-10 -7 -16 -20 -12 -28 3 -9 1 -20 -5 -26 -6 -6 -5 -19 6
-38 l15 -29 1 43 c0 53 0 54 11 75 12 21 9 21 -16 3z"/>
<path d="M1199 738 c-6 -13 -8 -20 -4 -16 5 4 13 3 20 -2 8 -7 12 -5 12 5 0 8
-5 11 -10 8 -6 -4 -8 0 -4 10 9 25 0 21 -14 -5z"/>
<path d="M1145 719 c-3 -4 2 -6 10 -5 21 3 28 13 10 13 -9 0 -18 -4 -20 -8z"/>
<path d="M1183 695 c0 -8 5 -11 10 -8 6 4 8 -1 4 -11 -5 -11 -3 -15 4 -10 7 4
10 1 7 -6 -2 -7 -12 -14 -22 -16 -11 -2 -16 2 -12 11 5 14 -18 15 -31 0 -5 -4
-2 -5 6 0 11 6 13 4 7 -11 -4 -10 -4 -15 0 -11 4 4 13 2 20 -4 8 -7 14 -7 19
1 3 6 12 7 18 4 7 -4 9 -4 5 1 -4 4 -1 20 7 35 13 26 13 28 -3 25 -9 -1 -22 1
-28 6 -7 5 -11 3 -11 -6z"/>
<path d="M1355 599 c-4 -5 -4 -13 -1 -16 3 -4 6 0 6 8 0 11 2 11 10 -1 6 -9
10 -10 10 -3 0 17 -17 25 -25 12z"/>
<path d="M1491 544 c0 -11 3 -14 6 -6 3 7 2 16 -1 19 -3 4 -6 -2 -5 -13z"/>
<path d="M1491 313 c0 -12 -11 -29 -23 -37 -19 -14 -20 -16 -5 -16 26 0 77 28
77 42 0 9 -3 9 -12 0 -18 -18 -26 -15 -31 11 l-4 22 -2 -22z"/>
<path d="M1277 803 c-6 -11 -3 -46 6 -60 4 -6 4 -19 1 -30 -6 -16 -5 -16 9 2
21 25 21 35 2 35 -13 0 -14 4 -4 21 9 17 8 20 -2 14 -9 -6 -11 -3 -6 8 6 17 2
24 -6 10z"/>
<path d="M1312 750 c8 -12 15 -15 19 -8 4 7 8 6 11 -3 3 -9 6 -9 11 3 4 13 1
16 -14 13 -10 -2 -19 0 -19 6 0 5 -5 9 -10 9 -6 0 -5 -8 2 -20z"/>
<path d="M1100 2665 c0 -8 7 -15 16 -15 14 0 14 3 4 15 -7 8 -14 15 -16 15 -2
0 -4 -7 -4 -15z"/>
<path d="M280 1661 c24 -20 40 -26 40 -16 0 2 -15 12 -32 20 l-33 16 25 -20z"/>
<path d="M2434 1269 c-3 -6 -20 -17 -38 -25 -17 -7 -23 -13 -14 -14 16 0 81
49 66 50 -4 0 -10 -5 -14 -11z"/>
<path d="M290 1266 c0 -2 8 -10 18 -17 15 -13 16 -12 3 4 -13 16 -21 21 -21
13z"/>
<path d="M2259 1213 l-34 -37 33 27 c19 15 46 27 60 28 24 0 25 1 7 9 -29 13
-28 13 -66 -27z"/>
<path d="M338 1228 c5 -5 16 -8 23 -6 8 3 3 7 -10 11 -17 4 -21 3 -13 -5z"/>
<path d="M405 1230 c-18 -8 -17 -9 8 -9 18 -1 43 -15 71 -41 24 -22 47 -40 51
-40 7 0 -93 94 -104 97 -3 1 -15 -2 -26 -7z"/>
<path d="M2195 1160 c-10 -11 -16 -22 -14 -24 2 -2 12 7 22 20 22 29 17 32 -8
4z"/>
<path d="M990 1046 c0 -12 6 -13 28 -5 19 6 38 6 55 0 22 -9 27 -8 27 4 0 11
-13 15 -55 15 -41 0 -55 -4 -55 -14z"/>
<path d="M1645 1048 c3 -8 22 -13 45 -13 25 0 40 5 40 13 0 8 -16 12 -45 12
-31 0 -43 -4 -40 -12z"/>
<path d="M959 973 c-13 -16 -12 -17 4 -4 9 7 17 15 17 17 0 8 -8 3 -21 -13z"/>
<path d="M1740 986 c0 -2 8 -10 18 -17 15 -13 16 -12 3 4 -13 16 -21 21 -21
13z"/>
<path d="M567 963 c-43 -8 -76 -17 -74 -20 3 -2 45 3 93 13 60 11 112 14 159
10 182 -15 202 -16 105 -1 -119 17 -184 17 -283 -2z"/>
<path d="M1925 975 c-5 -3 -41 -9 -80 -14 l-70 -10 80 7 c104 9 206 9 275 0
43 -5 48 -5 25 3 -33 11 -214 22 -230 14z"/>
<path d="M2210 940 c14 -4 34 -8 45 -8 16 0 15 2 -5 8 -14 4 -34 8 -45 8 -16
0 -15 -2 5 -8z"/>
<path d="M458 933 c7 -3 16 -2 19 1 4 3 -2 6 -13 5 -11 0 -14 -3 -6 -6z"/>
<path d="M1145 270 c10 -11 20 -20 23 -20 3 0 -3 9 -13 20 -10 11 -20 20 -23
20 -3 0 3 -9 13 -20z"/>
<path d="M1589 263 c-13 -16 -12 -17 4 -4 16 13 21 21 13 21 -2 0 -10 -8 -17
-17z"/>
<path d="M1190 240 c8 -5 22 -9 30 -9 10 0 8 3 -5 9 -27 12 -43 12 -25 0z"/>
<path d="M1520 220 c-19 -11 -31 -19 -27 -20 11 0 67 29 67 35 0 7 -1 7 -40
-15z"/>
<path d="M1248 223 c7 -3 16 -2 19 1 4 3 -2 6 -13 5 -11 0 -14 -3 -6 -6z"/>
<path d="M1288 213 c7 -3 16 -2 19 1 4 3 -2 6 -13 5 -11 0 -14 -3 -6 -6z"/>
<path d="M1340 200 c34 -11 60 -11 35 0 -11 5 -29 8 -40 8 -16 0 -15 -2 5 -8z"/>
<path d="M1448 193 c6 -2 18 -2 25 0 6 3 1 5 -13 5 -14 0 -19 -2 -12 -5z"/>
</g>
</svg>
