<?xml version="1.0" standalone="no"?>
<!DOCTYPE svg PUBLIC "-//W3C//DTD SVG 20010904//EN"
 "http://www.w3.org/TR/2001/REC-SVG-20010904/DTD/svg10.dtd">
<svg version="1.0" xmlns="http://www.w3.org/2000/svg"
 width="270.000000pt" height="590.000000pt" viewBox="0 0 270.000000 590.000000"
 preserveAspectRatio="xMidYMid meet">

<g transform="translate(0.000000,590.000000) scale(0.100000,-0.100000)"
fill="#000000" stroke="none">
<path d="M1295 5894 c-11 -2 -45 -9 -75 -15 -30 -6 -86 -26 -125 -45 l-70 -34
48 45 49 45 -34 0 c-55 0 -103 -18 -172 -65 -78 -54 -102 -58 -55 -9 l34 35
-30 -6 c-81 -19 -147 -64 -166 -112 -16 -42 -3 -37 31 12 18 26 34 44 37 42 6
-7 -22 -70 -50 -112 -23 -34 -26 -35 -32 -16 -3 12 -12 21 -20 21 -10 0 -11
-6 -2 -29 11 -30 5 -61 -13 -61 -5 0 -10 12 -11 28 -1 58 -18 -12 -19 -83 -1
-67 -3 -71 -36 -99 -19 -16 -63 -39 -97 -51 -68 -25 -110 -66 -89 -87 9 -9 13
-7 18 5 3 9 10 17 16 17 5 0 6 -4 3 -10 -3 -5 1 -23 10 -39 14 -27 17 -29 47
-20 47 13 58 11 58 -10 0 -25 -23 -42 -87 -66 -52 -19 -56 -23 -73 -72 -17
-49 -17 -52 -1 -67 13 -12 29 -15 64 -10 38 5 47 4 47 -8 0 -22 -28 -43 -103
-77 -37 -17 -67 -32 -67 -35 0 -3 7 -3 17 1 14 6 14 2 -3 -26 l-19 -31 -17 22
c-10 13 -18 17 -18 10 0 -7 17 -29 38 -50 31 -30 45 -37 77 -37 33 0 41 -4 43
-22 4 -28 -20 -41 -122 -67 -44 -12 -82 -27 -84 -35 -3 -10 2 -12 19 -8 20 5
24 2 26 -16 8 -91 22 -102 82 -66 35 21 52 19 32 -5 -6 -7 -14 -44 -18 -81 -5
-57 -8 -65 -18 -51 -22 29 -71 37 -97 16 -18 -15 -22 -28 -23 -76 l0 -59 54 3
c47 3 53 2 47 -13 -3 -9 -9 -28 -12 -41 -4 -14 -14 -24 -23 -24 -10 0 -41 -7
-69 -15 l-52 -16 2 -64 3 -65 46 0 c38 0 48 -4 52 -20 7 -28 -28 -53 -97 -70
-53 -12 -55 -14 -48 -39 4 -14 6 -42 6 -61 -1 -43 7 -49 61 -43 25 3 45 1 49
-6 4 -6 1 -11 -8 -11 -9 0 -16 -12 -18 -32 -3 -32 -5 -33 -58 -38 -30 -3 -66
-12 -79 -19 -23 -13 -24 -14 -6 -27 14 -10 17 -22 13 -59 l-6 -45 49 0 c57 0
61 -10 18 -42 -29 -22 -31 -26 -25 -70 3 -28 1 -48 -4 -48 -6 0 -10 -13 -10
-30 0 -16 -6 -33 -14 -37 -8 -4 -16 -21 -19 -38 -2 -20 -5 -12 -6 22 -1 63 -8
80 -32 94 -17 9 -22 4 -39 -33 -26 -57 -30 -275 -5 -284 8 -4 15 -15 15 -25 0
-11 7 -19 16 -19 9 0 47 -31 83 -68 36 -38 82 -79 101 -92 l35 -24 -40 46
c-68 78 -105 126 -105 138 0 6 5 8 10 5 6 -3 10 -1 10 4 0 24 17 9 37 -31 29
-61 95 -132 166 -180 55 -37 296 -158 314 -158 5 0 -28 21 -72 46 -181 104
-265 174 -271 228 -1 12 -3 24 -3 29 -1 4 -8 7 -16 7 -10 0 -15 10 -15 33 0
55 11 50 47 -21 60 -119 168 -210 370 -311 98 -49 102 -52 93 -75 -5 -14 -20
-107 -35 -208 -14 -101 -29 -196 -34 -213 l-9 -30 -1 27 c-2 48 -18 39 -35
-20 -18 -64 -21 -129 -7 -151 7 -11 11 -4 16 25 10 56 13 63 14 27 1 -49 10
-62 57 -82 24 -11 44 -26 44 -33 0 -7 11 -26 25 -43 l24 -30 2 25 c1 16 6 4
15 -30 19 -77 51 -365 69 -625 20 -292 23 -319 40 -305 26 22 48 98 42 145 -4
28 -2 47 5 51 7 5 8 31 4 80 -6 63 -5 74 9 74 8 0 15 7 15 15 0 10 -10 15 -26
15 -25 0 -26 2 -18 38 5 20 8 93 6 162 -3 119 -4 126 -30 152 -14 16 -20 28
-13 28 10 0 11 16 6 68 -6 59 -4 74 14 108 16 30 21 57 21 121 0 76 -13 143
-26 130 -3 -3 -2 -14 3 -24 13 -25 1 -169 -15 -185 -11 -11 -12 -10 -7 2 3 9
-4 42 -15 74 -24 70 -25 80 -5 73 8 -4 17 -2 20 2 6 11 -30 21 -82 21 -23 0
-44 4 -47 8 -8 14 13 78 34 104 11 13 19 17 20 11 0 -9 17 -13 50 -13 48 0 50
-1 40 -20 -8 -16 -8 -20 4 -20 8 0 18 5 21 10 3 6 20 10 37 10 28 0 30 -2 23
-27 -24 -94 -35 -167 -35 -234 0 -66 4 -84 31 -135 18 -32 47 -88 65 -123 l34
-64 -6 -106 c-6 -107 1 -222 33 -536 l18 -170 6 80 c4 44 10 229 14 411 l8
331 -43 47 c-23 25 -37 46 -31 46 6 0 43 -16 81 -35 59 -30 80 -35 137 -35 50
0 77 5 101 20 17 11 32 23 32 27 0 5 -42 21 -93 37 -76 23 -99 36 -134 71 -37
36 -43 48 -43 84 0 22 2 41 4 41 2 0 20 -13 41 -30 71 -56 86 -32 30 49 -24
35 -35 62 -35 87 0 36 0 37 -20 19 -19 -17 -20 -17 -20 0 0 36 42 105 91 149
61 55 179 98 179 66 0 -5 -8 -10 -19 -10 -24 0 -88 -27 -96 -41 -4 -6 8 -23
26 -39 29 -25 32 -31 22 -47 -41 -60 -56 -102 -61 -170 -4 -64 -1 -79 22 -127
19 -39 36 -58 61 -70 35 -17 58 -14 162 19 9 3 10 12 2 35 -8 23 -8 34 1 45
10 12 3 27 -37 82 -27 38 -66 95 -87 127 -36 56 -37 61 -20 73 10 7 35 13 55
13 64 0 121 -62 139 -153 l8 -42 1 54 c1 63 -26 130 -66 161 -28 22 -15 27 20
9 18 -10 17 -6 -7 19 -15 17 -25 35 -21 41 13 22 -84 55 -165 55 -115 1 -180
-42 -180 -118 0 -14 -5 -28 -11 -32 -22 -13 -58 -114 -65 -177 -12 -120 40
-227 131 -268 37 -17 38 -19 12 -19 -38 0 -137 81 -160 131 -17 38 -17 43 3
167 24 141 71 360 94 437 9 28 16 64 16 82 0 44 9 63 30 63 11 0 22 -11 27
-27 l10 -28 7 29 c6 26 10 28 39 22 52 -11 314 -19 344 -11 27 8 26 8 -15 16
-24 5 -69 20 -99 34 l-56 25 31 33 c41 42 41 52 0 31 -21 -11 -33 -13 -36 -6
-2 6 -9 9 -17 6 -8 -3 -31 6 -52 20 -24 17 -51 26 -75 26 -77 0 -264 89 -346
164 -54 49 -72 84 -75 140 -1 24 -5 42 -9 39 -5 -2 -8 12 -8 31 0 47 -27 126
-54 154 -48 53 -101 64 -152 33 -24 -15 -31 -26 -32 -52 l0 -34 18 36 c33 63
48 51 16 -12 -35 -72 -40 -164 -12 -246 19 -57 29 -63 58 -36 10 9 18 11 18 6
0 -6 -7 -16 -15 -23 -22 -18 -18 -30 8 -30 13 0 32 -9 43 -21 10 -11 57 -41
104 -66 47 -25 101 -56 121 -69 22 -14 45 -21 58 -17 12 3 21 1 21 -6 0 -7 17
-19 38 -27 20 -8 47 -20 58 -25 16 -8 29 -7 52 5 19 10 33 12 37 6 3 -6 21
-10 38 -10 l32 -1 -30 -17 c-22 -13 -52 -17 -115 -16 -97 1 -152 19 -330 111
-58 30 -94 46 -80 36 13 -10 36 -28 50 -41 20 -19 10 -16 -46 13 -82 42 -154
106 -183 164 -25 48 -26 58 -6 41 8 -7 15 -18 15 -26 0 -7 10 -18 22 -25 18
-10 20 -9 14 6 -3 9 -9 28 -12 41 -3 13 -9 24 -13 24 -3 0 -7 20 -8 45 -1 28
-13 66 -34 105 -32 61 -32 61 -17 108 12 35 16 41 17 22 2 -52 19 -54 26 -4 7
53 -3 88 -36 135 -18 26 -19 29 -3 29 16 0 16 1 0 19 -17 18 -16 19 20 31 46
15 167 8 244 -15 30 -9 87 -20 126 -25 75 -9 112 -17 344 -80 171 -47 278 -64
297 -48 7 6 18 28 25 50 7 26 15 35 21 29 7 -7 5 -24 -5 -50 -12 -29 -13 -38
-3 -35 18 7 35 50 35 89 0 32 -2 34 -62 54 -171 55 -334 97 -531 136 -71 14
-126 30 -138 41 -15 13 -38 17 -107 18 -69 1 -94 5 -117 21 -17 10 -42 18 -56
16 -29 -2 -46 21 -26 37 21 17 54 23 124 23 81 0 144 -20 159 -50 11 -22 11
-22 17 -2 3 13 13 21 25 21 44 0 176 -31 362 -84 107 -31 229 -61 271 -68 43
-7 75 -16 72 -21 -3 -5 0 -8 8 -5 18 6 45 54 54 94 5 28 3 33 -22 42 -15 6
-61 24 -100 41 -151 63 -428 133 -709 181 -67 11 -123 20 -126 20 -2 0 -2 16
0 36 l5 37 121 -6 c139 -7 257 -33 493 -106 164 -50 291 -81 338 -81 30 0 48
35 43 89 -3 35 -4 36 -108 78 -129 52 -309 104 -480 140 -129 26 -130 26 -141
60 -14 44 -33 56 -24 14 l7 -31 -59 5 c-134 13 -147 20 -131 67 l11 31 81 -7
c175 -13 366 -60 631 -153 72 -25 156 -48 188 -52 l58 -7 15 54 c15 50 15 55
-2 73 -9 10 -42 31 -73 46 -67 31 -411 134 -531 158 -47 9 -92 23 -101 31 -10
9 -39 14 -83 14 -36 0 -82 6 -101 14 -30 13 -33 17 -26 43 l8 28 89 -1 c113
-1 196 -19 469 -105 121 -38 258 -77 303 -86 98 -19 102 -17 102 64 l0 51 -72
30 c-86 36 -262 93 -483 157 -88 26 -168 51 -179 57 -12 7 -22 6 -29 -1 -16
-16 -65 -14 -119 6 -51 18 -56 28 -34 59 13 17 27 19 144 19 92 0 128 -3 125
-11 -4 -11 36 -24 88 -27 15 -1 25 -7 22 -13 -2 -6 36 -22 89 -39 51 -15 154
-47 228 -71 74 -23 154 -48 178 -54 24 -6 49 -13 56 -16 16 -6 39 69 34 111
-3 25 -13 32 -83 62 -180 78 -356 136 -510 169 -44 9 -96 27 -116 40 -24 15
-40 19 -50 13 -22 -14 -75 -11 -119 7 -22 9 -40 18 -40 19 0 2 4 15 10 29 9
24 14 26 67 26 132 0 285 -38 577 -144 114 -42 218 -77 233 -78 22 -3 28 3 38
32 8 22 18 34 29 34 17 -2 22 31 8 53 -13 20 -158 78 -437 172 -242 83 -274
91 -341 91 -43 0 -90 6 -110 15 l-36 15 22 30 c22 31 23 31 89 25 163 -16 291
-50 545 -147 72 -27 170 -60 218 -73 l88 -23 12 39 c22 74 11 85 -157 161
-246 110 -458 172 -662 193 -34 4 -67 13 -73 20 -8 9 -10 54 -7 134 4 103 7
123 26 147 11 14 21 34 21 43 0 10 12 22 28 29 19 8 20 10 4 6 -21 -5 -22 -3
-16 23 9 39 13 43 28 37 8 -3 27 1 43 10 l28 15 -35 -1 c-19 0 -44 -2 -55 -4z
m-460 -1857 c12 -7 21 -21 20 -32 0 -41 -83 -27 -118 20 l-18 25 48 0 c26 -1
57 -6 68 -13z m703 -1761 l53 -11 -45 -16 -44 -16 -33 35 c-31 33 -32 34 -9
27 14 -5 49 -13 78 -19z"/>
<path d="M1477 5869 c-32 -3 -61 -10 -65 -14 -4 -4 8 -5 27 -1 l34 6 -64 -67
c-36 -38 -75 -81 -88 -98 l-22 -30 5 33 c8 45 -2 40 -26 -15 l-21 -47 27 -23
c63 -54 215 -8 240 73 3 11 17 31 30 43 21 20 25 20 57 8 19 -8 67 -22 108
-32 50 -12 84 -27 107 -47 23 -21 39 -28 54 -23 15 5 20 2 20 -11 0 -9 14 -32
30 -51 17 -18 30 -38 30 -42 0 -5 16 -12 36 -15 28 -6 34 -11 29 -25 -3 -10 1
-24 10 -31 8 -7 12 -16 9 -21 -3 -5 6 -13 20 -19 45 -17 107 -63 98 -72 -6 -6
3 -23 21 -43 26 -29 31 -44 33 -97 4 -83 7 -98 16 -98 5 0 14 11 20 25 13 30
28 33 28 6 0 -35 -29 -171 -40 -189 -9 -13 -10 -6 -5 33 11 83 11 108 -1 112
-7 2 -10 -5 -7 -19 2 -13 -7 -45 -21 -72 -16 -31 -22 -54 -16 -61 5 -6 5 -27
0 -50 -5 -22 -10 -78 -10 -125 -1 -53 -4 -77 -9 -65 -7 16 -11 7 -20 -40 -7
-33 -17 -78 -23 -99 -9 -36 -8 -41 19 -62 15 -12 25 -26 21 -30 -4 -4 -15 -1
-23 6 -26 22 -45 -9 -55 -89 -5 -39 -16 -97 -24 -128 -22 -89 -27 -137 -16
-153 7 -11 10 -5 10 25 0 46 68 295 69 253 2 -83 -47 -376 -90 -532 -13 -50
-16 -72 -8 -77 8 -5 8 -8 -1 -11 -19 -6 -49 -174 -50 -275 0 -78 -2 -91 -15
-87 -25 10 -19 -94 11 -187 30 -89 33 -90 104 -43 52 35 87 38 154 15 76 -27
76 -27 76 10 0 28 3 31 24 25 31 -8 45 11 39 50 -4 27 -12 33 -77 57 -39 15
-81 33 -91 42 -20 14 -20 14 3 15 12 0 22 6 22 14 0 26 19 28 76 7 67 -26 62
-26 66 2 2 14 11 23 26 25 14 2 22 10 22 22 0 38 -22 66 -83 104 -34 21 -56
41 -49 43 6 3 12 13 12 24 0 24 27 25 74 3 33 -16 35 -16 65 7 24 19 30 29 25
49 -3 14 -6 33 -7 44 -1 11 -17 25 -42 36 -22 10 -49 25 -60 33 -19 14 -19 16
-2 34 9 11 17 25 17 31 0 8 14 5 40 -8 43 -22 65 -26 55 -10 -3 6 -3 15 1 21
4 8 9 7 15 -2 12 -21 24 -2 24 41 0 42 -28 80 -76 105 -21 12 -25 19 -21 49 5
42 10 43 63 14 31 -18 41 -20 47 -10 5 8 16 10 27 6 15 -6 17 -4 12 17 -4 13
-7 43 -7 66 0 33 -4 43 -20 48 -26 8 -80 54 -80 67 0 6 7 8 15 4 12 -4 14 0 9
21 -4 14 -3 24 2 21 77 -37 107 -49 112 -43 3 3 8 34 10 69 l4 63 -50 32 c-28
17 -53 39 -56 47 -3 8 -2 12 3 9 21 -13 21 18 0 41 -31 33 -17 41 22 13 17
-12 45 -22 60 -22 24 0 29 -5 29 -24 0 -14 6 -23 15 -23 11 0 15 12 15 49 0
28 5 53 10 56 16 10 -12 42 -79 91 -60 43 -80 65 -42 44 11 -5 22 -10 25 -10
14 0 4 31 -20 59 -31 38 -20 40 27 5 58 -43 68 -47 62 -22 -8 30 19 19 35 -15
7 -15 17 -25 23 -22 16 10 10 48 -16 93 -23 40 -22 55 3 30 13 -13 27 -5 18
11 -3 5 -41 35 -84 67 -102 76 -128 103 -40 42 31 -21 53 -15 43 11 -4 9 -18
52 -31 95 -27 89 -143 304 -210 389 -43 55 -69 72 -234 146 -25 11 -73 38
-107 59 -49 31 -83 43 -170 60 -59 12 -131 22 -159 22 -48 0 -104 17 -104 32
0 15 68 19 150 9 46 -6 112 -11 145 -10 l60 1 -90 29 c-197 64 -283 79 -378
68z"/>
<path d="M1393 5828 c-25 -32 -26 -40 -4 -26 12 7 21 18 21 25 0 16 -5 16 -17
1z"/>
<path d="M633 5748 c-47 -33 -99 -108 -82 -119 10 -6 10 -15 2 -43 -13 -42 -2
-56 20 -23 29 44 107 207 99 207 -4 0 -22 -10 -39 -22z"/>
<path d="M510 5544 c0 -8 5 -12 10 -9 6 4 8 11 5 16 -9 14 -15 11 -15 -7z"/>
<path d="M345 5110 c-3 -5 -1 -18 4 -27 9 -16 10 -14 11 10 0 28 -5 34 -15 17z"/>
<path d="M2053 4849 c-7 -7 -13 -22 -13 -33 0 -19 1 -19 16 -4 9 8 14 23 12
32 -2 14 -5 15 -15 5z"/>
<path d="M2013 4015 c-21 -53 -25 -75 -13 -75 14 0 32 48 28 79 l-3 26 -12
-30z"/>
<path d="M1905 3991 c-3 -6 -2 -17 2 -25 7 -11 10 -12 20 -1 10 10 9 16 -2 25
-9 7 -15 8 -20 1z"/>
<path d="M1910 3898 c0 -19 2 -20 10 -8 13 19 13 30 0 30 -5 0 -10 -10 -10
-22z"/>
<path d="M1980 3878 c0 -24 -7 -83 -15 -133 -8 -49 -15 -97 -15 -105 1 -37 19
20 34 109 18 108 21 171 6 171 -5 0 -10 -19 -10 -42z"/>
<path d="M60 3760 c0 -5 7 -10 15 -10 8 0 15 5 15 10 0 6 -7 10 -15 10 -8 0
-15 -4 -15 -10z"/>
<path d="M1932 3565 c0 -16 2 -22 5 -12 2 9 2 23 0 30 -3 6 -5 -1 -5 -18z"/>
<path d="M913 3393 c-12 -4 77 -103 92 -103 10 0 -5 62 -21 88 -14 21 -42 27
-71 15z"/>
<path d="M1120 3082 c0 -12 19 -26 26 -19 2 2 -2 10 -11 17 -9 8 -15 8 -15 2z"/>
<path d="M1470 1400 c-9 -6 -10 -10 -3 -10 6 0 15 5 18 10 8 12 4 12 -15 0z"/>
<path d="M1030 990 c0 -5 5 -10 11 -10 5 0 7 5 4 10 -3 6 -8 10 -11 10 -2 0
-4 -4 -4 -10z"/>
<path d="M960 966 c0 -14 4 -27 9 -30 10 -7 20 23 14 42 -8 21 -23 13 -23 -12z"/>
<path d="M1803 943 c9 -9 19 -14 23 -11 10 10 -6 28 -24 28 -15 0 -15 -1 1
-17z"/>
<path d="M1210 806 c0 -19 -4 -38 -10 -41 -18 -11 -11 -35 10 -35 17 0 20 7
20 45 0 25 0 48 1 52 0 4 -4 9 -10 11 -7 2 -11 -11 -11 -32z"/>
<path d="M1040 801 c0 -5 5 -13 10 -16 6 -3 10 -2 10 4 0 5 -4 13 -10 16 -5 3
-10 2 -10 -4z"/>
<path d="M900 794 c0 -5 15 -24 33 -41 56 -53 107 -70 107 -34 0 14 -6 17 -25
13 -15 -2 -25 0 -25 7 0 6 9 11 20 11 20 0 20 1 3 25 -23 31 -33 31 -33 1 0
-40 -21 -42 -51 -5 -16 19 -29 29 -29 23z"/>
<path d="M1455 720 l-20 -9 20 0 c11 0 29 4 40 9 l20 9 -20 0 c-11 0 -29 -4
-40 -9z"/>
<path d="M953 684 c15 -8 27 -19 27 -25 0 -6 -10 -3 -22 5 -12 9 -29 16 -36
16 -12 0 -12 -4 1 -23 14 -21 13 -24 -1 -34 -14 -8 -13 -12 11 -28 33 -21 37
-46 6 -38 -17 5 -20 2 -16 -13 15 -54 19 -86 8 -80 -25 16 -9 -30 21 -61 32
-33 33 -58 2 -32 -16 13 -16 12 -6 -8 12 -21 82 -53 150 -68 30 -6 32 -5 32
22 l0 28 16 -33 c19 -36 27 -37 182 -25 76 5 85 8 93 30 4 12 16 23 25 23 11
0 14 -5 10 -16 -4 -11 -1 -14 12 -10 62 17 63 18 57 37 -5 16 -1 19 23 19 36
0 62 38 88 126 18 63 13 112 -18 162 -17 28 -25 32 -61 32 -23 0 -67 -7 -97
-15 -30 -8 -67 -15 -82 -15 -21 0 -28 -5 -28 -20 0 -11 -4 -20 -10 -20 -5 0
-10 6 -10 14 0 11 -28 15 -142 18 -124 3 -149 6 -185 26 -23 12 -50 22 -60 22
-13 -1 -11 -5 10 -16z"/>
<path d="M1193 683 c9 -2 25 -2 35 0 9 3 1 5 -18 5 -19 0 -27 -2 -17 -5z"/>
<path d="M1979 345 c-8 -8 -51 -22 -94 -29 -59 -11 -111 -30 -201 -75 -108
-54 -163 -90 -138 -91 5 0 43 -5 84 -10 145 -19 300 18 361 87 26 30 30 42 27
81 -3 49 -15 61 -39 37z"/>
<path d="M1012 258 c36 -51 56 -60 43 -19 -8 27 -32 51 -51 51 -11 0 -9 -8 8
-32z"/>
<path d="M1480 145 c-47 -26 -159 -38 -302 -32 -81 4 -138 3 -138 -2 0 -15 48
-49 86 -61 29 -10 39 -9 61 5 21 14 27 15 34 4 5 -8 8 -23 6 -34 -1 -16 5 -21
31 -23 31 -3 32 -2 32 32 0 24 5 36 14 36 8 0 16 7 20 15 8 21 26 19 26 -4 0
-18 2 -18 28 -6 15 8 41 17 57 20 l30 7 -25 -21 c-19 -16 -21 -21 -9 -21 9 0
22 7 30 16 7 8 26 22 41 30 17 9 28 22 26 31 -4 22 -19 25 -48 8z"/>
<path d="M1100 31 c50 -22 70 -25 70 -12 0 5 -12 11 -27 14 -88 18 -88 18 -43
-2z"/>
</g>
</svg>
